<svg width="1280" height="420" viewBox="0 0 1280 420" fill="none" xmlns="http://www.w3.org/2000/svg">
  <defs>
    <linearGradient id="panel" x1="80" y1="56" x2="1180" y2="356" gradientUnits="userSpaceOnUse">
      <stop stop-color="#FFF7EF"/>
      <stop offset="0.5" stop-color="#FFFDF9"/>
      <stop offset="1" stop-color="#F5FBFF"/>
    </linearGradient>
    <linearGradient id="line" x1="110" y1="92" x2="1120" y2="92" gradientUnits="userSpaceOnUse">
      <stop stop-color="#FFD88F"/>
      <stop offset="0.5" stop-color="#FFA896"/>
      <stop offset="1" stop-color="#87C8FF"/>
    </linearGradient>
    <filter id="panelShadow" x="40" y="24" width="1200" height="372" filterUnits="userSpaceOnUse" color-interpolation-filters="sRGB">
      <feDropShadow dx="0" dy="20" stdDeviation="18" flood-color="#D9C8B7" flood-opacity="0.28"/>
    </filter>
  </defs>
  <rect width="1280" height="420" rx="40" fill="#F9F3E7"/>
  <g filter="url(#panelShadow)">
    <rect x="56" y="40" width="1168" height="340" rx="34" fill="url(#panel)"/>
  </g>
  <rect x="112" y="88" width="1056" height="8" rx="4" fill="url(#line)" fill-opacity="0.6"/>
  <circle cx="132" cy="152" r="7" fill="#FF9887"/>
  <circle cx="156" cy="152" r="7" fill="#FFD171"/>
  <circle cx="180" cy="152" r="7" fill="#82D7B8"/>
  <g transform="translate(110 120) scale(0.42)">
    <path d="M106 258C140 212 192 176 256 176C316 176 368 208 406 258C368 308 316 340 256 340C192 340 140 304 106 258Z" fill="#FFF8EF"/>
    <path d="M106 258C144 206 201 174 256 174C303 174 346 192 381 226L330 278C316 262 292 250 256 250H171L106 258Z" fill="#FF8C7A"/>
    <path d="M406 258C371 308 320 340 256 340C214 340 175 324 142 296L192 258H256C303 258 333 273 350 290L406 258Z" fill="#B7EDD8"/>
    <path d="M150 318C202 282 314 278 396 214C418 227 428 243 436 258C352 332 236 356 150 318Z" fill="#58AEFF"/>
    <rect x="202" y="228" width="34" height="88" rx="12" fill="#FFD280"/>
    <rect x="239" y="190" width="38" height="126" rx="14" fill="#55AEEF"/>
    <rect x="282" y="206" width="34" height="110" rx="12" fill="#FF7F82"/>
  </g>
  <text x="344" y="190" fill="#1D1714" font-size="72" font-weight="700" font-family="Inter, Segoe UI, sans-serif">usage-insights</text>
  <text x="344" y="238" fill="#6A6258" font-size="28" font-weight="500" font-family="Inter, Segoe UI, sans-serif">Analyze local AI usage, generate reports, and render shareable videos.</text>
  <g>
    <rect x="346" y="280" width="176" height="44" rx="22" fill="#E3F2FF" stroke="#B7D8FA"/>
    <circle cx="374" cy="302" r="8" fill="#58AEFF"/>
    <text x="394" y="310" fill="#3D4F60" font-size="22" font-weight="600" font-family="Inter, Segoe UI, sans-serif">Codex + Claude</text>
  </g>
  <g>
    <rect x="540" y="280" width="148" height="44" rx="22" fill="#E8FAF1" stroke="#B8E6D1"/>
    <circle cx="568" cy="302" r="8" fill="#67C8A1"/>
    <text x="588" y="310" fill="#3E5C4B" font-size="22" font-weight="600" font-family="Inter, Segoe UI, sans-serif">Gemini traces</text>
  </g>
  <g>
    <rect x="708" y="280" width="198" height="44" rx="22" fill="#FFF1E9" stroke="#F6D0C2"/>
    <circle cx="736" cy="302" r="8" fill="#FF8C7A"/>
    <text x="756" y="310" fill="#634843" font-size="22" font-weight="600" font-family="Inter, Segoe UI, sans-serif">Optional Remotion MP4</text>
  </g>
</svg>
